<svg width="35" height="43" viewBox="0 0 35 43" fill="none" xmlns="http://www.w3.org/2000/svg">
<path fill-rule="evenodd" clip-rule="evenodd" d="M3.98519 15.8401C2.89003 13.3981 3.14384 10.2075 4.7466 8.11242C6.65092 5.62319 9.73844 5.62319 11.6428 8.11242L13.1779 10.1191C13.1837 10.1259 13.1894 10.1329 13.195 10.1402L26.735 27.839C27.7767 29.2007 27.7767 31.4083 26.735 32.77C25.6933 34.1317 24.0044 34.1317 22.9627 32.77L9.42264 15.0712C9.25485 14.8519 9.25485 14.4963 9.42264 14.2769C9.59042 14.0576 9.86246 14.0576 10.0302 14.2769L23.5703 31.9758C24.2764 32.8988 25.4212 32.8988 26.1274 31.9758C26.8335 31.0528 26.8335 29.5563 26.1274 28.6333L19.922 20.5219C19.9162 20.5151 19.9105 20.508 19.9049 20.5008L11.0352 8.90666C9.46641 6.85607 6.92296 6.85607 5.35421 8.90666C3.85839 10.8619 3.78885 13.9755 5.14559 16.0385L20.5153 36.129C22.9272 39.2817 26.8377 39.2817 29.2496 36.129C31.6615 32.9763 31.6615 27.8647 29.2496 24.712L13.452 4.06224C13.2842 3.84292 13.2842 3.48733 13.452 3.26801C13.6198 3.04869 13.8918 3.04868 14.0596 3.26801L29.8572 23.9177C32.6046 27.5091 32.6046 33.3318 29.8572 36.9232C27.1097 40.5146 22.6551 40.5146 19.9077 36.9232L13.6947 28.8019C13.6669 28.7795 13.6405 28.7524 13.6164 28.7208L4.7466 17.1267C4.66629 17.0218 4.58937 16.914 4.51584 16.8038L4.11014 16.2735C4.01919 16.1546 3.97754 15.9957 3.98519 15.8401Z" fill="#D9D9D9"/>
<path d="M4.7466 8.11242L6.73219 9.63145H6.73219L4.7466 8.11242ZM3.98519 15.8401L6.48217 15.9629L6.51161 15.3641L6.2663 14.8171L3.98519 15.8401ZM11.6428 8.11242L9.65718 9.63145H9.65718L11.6428 8.11242ZM13.1779 10.1191L11.1923 11.6381L11.2323 11.6904L11.275 11.7405L13.1779 10.1191ZM13.195 10.1402L11.2093 11.6592L11.2094 11.6592L13.195 10.1402ZM26.735 27.839L28.7206 26.32L26.735 27.839ZM26.735 32.77L24.7494 31.251L26.735 32.77ZM22.9627 32.77L24.9482 31.251V31.251L22.9627 32.77ZM9.42264 15.0712L7.43705 16.5902L7.43705 16.5902L9.42264 15.0712ZM9.42264 14.2769L7.43705 12.7579L7.43705 12.7579L9.42264 14.2769ZM10.0302 14.2769L12.0158 12.7579L12.0158 12.7579L10.0302 14.2769ZM23.5703 31.9758L21.5847 33.4948L23.5703 31.9758ZM26.1274 31.9758L28.113 33.4948L28.113 33.4948L26.1274 31.9758ZM26.1274 28.6333L28.113 27.1142L28.113 27.1142L26.1274 28.6333ZM19.922 20.5219L21.9076 19.0028L21.8676 18.9506L21.8249 18.9005L19.922 20.5219ZM19.9049 20.5008L17.9193 22.0198L17.9194 22.0199L19.9049 20.5008ZM11.0352 8.90666L13.0207 7.38764L11.0352 8.90666ZM5.35421 8.90666L3.36862 7.38763H3.36862L5.35421 8.90666ZM5.14559 16.0385L3.05683 17.4122L3.10583 17.4867L3.16 17.5575L5.14559 16.0385ZM20.5153 36.129L18.5297 37.648L20.5153 36.129ZM29.2496 36.129L27.264 34.6099L29.2496 36.129ZM29.2496 24.712L27.264 26.231L29.2496 24.712ZM13.452 4.06224L11.4664 5.58127V5.58127L13.452 4.06224ZM13.452 3.26801L15.4376 4.78703V4.78703L13.452 3.26801ZM14.0596 3.26801L16.0452 1.74898L16.0452 1.74898L14.0596 3.26801ZM29.8572 23.9177L27.8716 25.4368L29.8572 23.9177ZM29.8572 36.9232L27.8716 35.4042L29.8572 36.9232ZM19.9077 36.9232L17.9221 38.4422L19.9077 36.9232ZM13.6947 28.8019L15.6803 27.2829L15.4982 27.0448L15.2649 26.8565L13.6947 28.8019ZM13.6164 28.7208L11.6308 30.2399L11.6308 30.2399L13.6164 28.7208ZM4.7466 17.1267L6.73219 15.6077L6.73219 15.6077L4.7466 17.1267ZM4.51584 16.8038L6.59563 15.4165L6.55066 15.3491L6.50143 15.2848L4.51584 16.8038ZM4.11014 16.2735L2.12454 17.7925L2.12455 17.7925L4.11014 16.2735ZM2.76101 6.5934C0.547422 9.48689 0.270649 13.6668 1.70407 16.8631L6.2663 14.8171C5.50942 13.1294 5.74025 10.9281 6.73219 9.63145L2.76101 6.5934ZM13.6284 6.5934C12.2695 4.81717 10.3242 3.7455 8.19468 3.7455C6.0652 3.7455 4.11987 4.81716 2.76101 6.5934L6.73219 9.63145C7.27765 8.91844 7.82825 8.7455 8.19468 8.7455C8.56112 8.7455 9.11171 8.91845 9.65718 9.63145L13.6284 6.5934ZM15.1635 8.60008L13.6284 6.5934L9.65718 9.63145L11.1923 11.6381L15.1635 8.60008ZM15.1806 8.62124C15.1487 8.57953 15.1155 8.53833 15.0809 8.49774L11.275 11.7405C11.252 11.7135 11.2301 11.6863 11.2093 11.6592L15.1806 8.62124ZM28.7206 26.32L15.1805 8.62118L11.2094 11.6592L24.7494 29.358L28.7206 26.32ZM28.7206 34.289C30.4481 32.0308 30.4481 28.5782 28.7206 26.32L24.7494 29.358C25.1052 29.8231 25.1052 30.7859 24.7494 31.251L28.7206 34.289ZM20.9771 34.289C21.9046 35.5015 23.2846 36.2912 24.8488 36.2912C26.413 36.2912 27.793 35.5015 28.7206 34.289L24.7494 31.251C24.6877 31.3316 24.6569 31.3402 24.6817 31.3271C24.7085 31.3129 24.7677 31.2912 24.8488 31.2912C24.9299 31.2912 24.9891 31.3129 25.0159 31.3271C25.0408 31.3402 25.0099 31.3316 24.9482 31.251L20.9771 34.289ZM7.43705 16.5902L20.9771 34.289L24.9482 31.251L11.4082 13.5522L7.43705 16.5902ZM7.43705 12.7579C6.58338 13.8738 6.58338 15.4743 7.43705 16.5902L11.4082 13.5522C11.7108 13.9477 11.7968 14.3626 11.7968 14.6741C11.7968 14.9855 11.7108 15.4004 11.4082 15.796L7.43705 12.7579ZM12.0158 12.7579C11.5252 12.1166 10.7179 11.6125 9.72644 11.6125C8.73496 11.6125 7.92764 12.1166 7.43705 12.7579L11.4082 15.796C11.0854 16.2179 10.498 16.6125 9.72644 16.6125C8.95487 16.6125 8.36746 16.2179 8.04466 15.796L12.0158 12.7579ZM25.5559 30.4567L12.0158 12.7579L8.04466 15.796L21.5847 33.4948L25.5559 30.4567ZM24.1418 30.4567C24.1954 30.3866 24.43 30.168 24.8488 30.168C25.2676 30.168 25.5022 30.3866 25.5559 30.4567L21.5847 33.4948C22.3444 34.4879 23.5045 35.168 24.8488 35.168C26.1931 35.168 27.3532 34.4879 28.113 33.4948L24.1418 30.4567ZM24.1418 30.1523C24.1211 30.1252 24.1263 30.1219 24.1368 30.1559C24.1474 30.1898 24.157 30.2418 24.157 30.3045C24.157 30.3672 24.1474 30.4192 24.1368 30.4532C24.1263 30.4871 24.1211 30.4838 24.1418 30.4567L28.113 33.4948C29.505 31.6752 29.505 28.9338 28.113 27.1142L24.1418 30.1523ZM17.9364 22.0409L24.1418 30.1523L28.113 27.1142L21.9076 19.0028L17.9364 22.0409ZM17.9194 22.0199C17.9511 22.0613 17.9843 22.1025 18.019 22.1432L21.8249 18.9005C21.848 18.9277 21.8699 18.9548 21.8905 18.9817L17.9194 22.0199ZM9.04957 10.4257L17.9193 22.0198L21.8905 18.9817L13.0207 7.38764L9.04957 10.4257ZM7.3398 10.4257C7.71748 9.932 8.04816 9.86872 8.19468 9.86872C8.3412 9.86872 8.67189 9.932 9.04957 10.4257L13.0207 7.38764C11.8297 5.83073 10.1043 4.86872 8.19468 4.86872C6.28511 4.86872 4.55969 5.83072 3.36862 7.38763L7.3398 10.4257ZM7.23436 14.6648C6.44247 13.4607 6.51086 11.5092 7.3398 10.4257L3.36862 7.38763C1.20592 10.2146 1.13523 14.4904 3.05683 17.4122L7.23436 14.6648ZM3.16 17.5575L18.5297 37.648L22.5009 34.6099L7.13118 14.5195L3.16 17.5575ZM18.5297 37.648C20.1423 39.756 22.4203 40.9935 24.8824 40.9935C27.3445 40.9935 29.6225 39.756 31.2352 37.648L27.264 34.6099C26.4647 35.6547 25.5815 35.9935 24.8824 35.9935C24.1834 35.9935 23.3001 35.6547 22.5009 34.6099L18.5297 37.648ZM31.2352 37.648C34.3329 33.5987 34.3329 27.2422 31.2351 23.1929L27.264 26.231C28.99 28.4872 28.99 32.3538 27.264 34.6099L31.2352 37.648ZM31.2351 23.1929L15.4376 2.54322L11.4664 5.58127L27.264 26.231L31.2351 23.1929ZM15.4376 2.54322C15.7402 2.93879 15.8262 3.35366 15.8262 3.66513C15.8262 3.97659 15.7402 4.39146 15.4376 4.78703L11.4664 1.74898C10.6128 2.86485 10.6128 4.4654 11.4664 5.58127L15.4376 2.54322ZM15.4376 4.78703C15.1148 5.20899 14.5274 5.60352 13.7558 5.60352C12.9843 5.60352 12.3969 5.20899 12.074 4.78704L16.0452 1.74898C15.5546 1.10771 14.7473 0.603515 13.7558 0.603516C12.7643 0.603516 11.957 1.10771 11.4664 1.74898L15.4376 4.78703ZM12.074 4.78703L27.8716 25.4368L31.8428 22.3987L16.0452 1.74898L12.074 4.78703ZM27.8716 25.4368C29.9332 28.1316 29.9332 32.7094 27.8716 35.4042L31.8428 38.4422C35.2761 33.9543 35.2761 26.8866 31.8428 22.3987L27.8716 25.4368ZM27.8716 35.4042C26.9045 36.6682 25.8014 37.1167 24.8824 37.1167C23.9634 37.1167 22.8603 36.6682 21.8933 35.4042L17.9221 38.4422C19.7025 40.7695 22.2004 42.1167 24.8824 42.1167C27.5645 42.1167 30.0623 40.7695 31.8428 38.4422L27.8716 35.4042ZM21.8933 35.4042L15.6803 27.2829L11.7091 30.321L17.9221 38.4422L21.8933 35.4042ZM11.6308 30.2399C11.7691 30.4206 11.9331 30.5929 12.1245 30.7473L15.2649 26.8565C15.4006 26.9661 15.512 27.0842 15.6019 27.2018L11.6308 30.2399ZM2.76101 18.6458L11.6308 30.2399L15.602 27.2018L6.73219 15.6077L2.76101 18.6458ZM2.43605 18.191C2.539 18.3454 2.64729 18.4971 2.76102 18.6458L6.73219 15.6077C6.6853 15.5464 6.63975 15.4827 6.59563 15.4165L2.43605 18.191ZM6.50143 15.2848L6.09573 14.7545L2.12455 17.7925L2.53025 18.3228L6.50143 15.2848ZM6.09573 14.7545C6.42161 15.1804 6.49853 15.6301 6.48217 15.9629L1.4882 15.7174C1.45654 16.3613 1.61677 17.1288 2.12454 17.7925L6.09573 14.7545Z" fill="black" fill-opacity="0.25"/>
</svg>
