<svg width="69" height="62" viewBox="0 0 69 62" fill="none" xmlns="http://www.w3.org/2000/svg">
<g filter="url(#filter0_d_1234_13298)">
<path fill-rule="evenodd" clip-rule="evenodd" d="M5.56551 0.555307C5.38703 0.475475 5.1784 0.506993 5.03147 0.635983C4.88455 0.764972 4.82628 0.967767 4.88234 1.15507L12.5729 26.8542L4.88234 52.5533C4.82628 52.7406 4.88455 52.9434 5.03147 53.0723C5.1784 53.2013 5.38703 53.2329 5.56551 53.153L63.3393 27.3107C63.4469 27.2625 63.5304 27.18 63.5809 27.0807C63.5894 27.0639 63.597 27.0467 63.6036 27.0288C63.6222 26.9791 63.6329 26.9262 63.6348 26.8721C63.6354 26.8569 63.6352 26.8418 63.6344 26.8268C63.6314 26.7709 63.619 26.7165 63.5983 26.6657C63.5876 26.6396 63.5748 26.6144 63.5599 26.5904C63.5087 26.5078 63.4332 26.4397 63.3393 26.3977L5.56551 0.555307ZM13.4671 26.3541L6.15316 1.91365L60.7928 26.3541H13.4671ZM13.4671 27.3542L6.15316 51.7947L60.7928 27.3542H13.4671Z" fill="#08297C"/>
<path d="M5.03147 0.635983L4.7016 0.260238L4.7016 0.260238L5.03147 0.635983ZM5.56551 0.555307L5.36135 1.01173L5.36135 1.01173L5.56551 0.555307ZM4.88234 1.15507L4.40332 1.29842L4.88234 1.15507ZM12.5729 26.8542L13.0519 26.9975C13.0799 26.904 13.0799 26.8043 13.0519 26.7108L12.5729 26.8542ZM4.88234 52.5533L5.36135 52.6966L5.36135 52.6966L4.88234 52.5533ZM5.03147 53.0723L4.7016 53.4481H4.7016L5.03147 53.0723ZM5.56551 53.153L5.76966 53.6094H5.76966L5.56551 53.153ZM63.3393 27.3107L63.1351 26.8542L63.3393 27.3107ZM63.5809 27.0807L63.1351 26.8542L63.1351 26.8542L63.5809 27.0807ZM63.6036 27.0288L63.1352 26.8541L63.135 26.8544L63.6036 27.0288ZM63.6348 26.8721L63.1352 26.8539L63.1351 26.8543L63.6348 26.8721ZM63.6344 26.8268L63.1352 26.854V26.854L63.6344 26.8268ZM63.5983 26.6657L63.1352 26.8542L63.1352 26.8542L63.5983 26.6657ZM63.5599 26.5904L63.135 26.854L63.135 26.854L63.5599 26.5904ZM63.3393 26.3977L63.5434 25.9413L63.5434 25.9413L63.3393 26.3977ZM6.15316 1.91365L6.35732 1.45723C6.17884 1.3774 5.97021 1.40891 5.82329 1.5379C5.67636 1.66689 5.6181 1.86969 5.67415 2.05699L6.15316 1.91365ZM13.4671 26.3541L12.9881 26.4974C13.0514 26.7091 13.2462 26.8541 13.4671 26.8541V26.3541ZM60.7928 26.3541V26.8541C61.0287 26.8541 61.2325 26.6892 61.2817 26.4585C61.331 26.2278 61.2123 25.994 60.9969 25.8977L60.7928 26.3541ZM6.15316 51.7947L5.67415 51.6513C5.6181 51.8386 5.67636 52.0414 5.82329 52.1704C5.97021 52.2994 6.17884 52.3309 6.35732 52.2511L6.15316 51.7947ZM13.4671 27.3542V26.8542C13.2462 26.8542 13.0514 26.9992 12.9881 27.2109L13.4671 27.3542ZM60.7928 27.3542L60.9969 27.8107C61.2123 27.7143 61.331 27.4806 61.2817 27.2499C61.2325 27.0191 61.0287 26.8542 60.7928 26.8542V27.3542ZM5.36135 1.01173L5.36135 1.01173L5.76966 0.0988865C5.41272 -0.0607768 4.99545 0.00225884 4.7016 0.260238L5.36135 1.01173ZM5.36135 1.01173L4.7016 0.260238C4.40775 0.518217 4.29122 0.923806 4.40332 1.29842L5.36135 1.01173ZM13.0519 26.7108L5.36135 1.01173L4.40332 1.29842L12.0939 26.9975L13.0519 26.7108ZM12.0939 26.7108L4.40332 52.4099L5.36135 52.6966L13.0519 26.9975L12.0939 26.7108ZM4.40332 52.4099C4.29122 52.7845 4.40775 53.1901 4.7016 53.4481L5.36135 52.6966L5.36135 52.6966L4.40332 52.4099ZM4.7016 53.4481C4.99546 53.7061 5.41272 53.7691 5.76966 53.6094L5.36135 52.6966H5.36135L4.7016 53.4481ZM5.76966 53.6094L63.5434 27.7671L63.1351 26.8542L5.36135 52.6966L5.76966 53.6094ZM63.5434 27.7671C63.7587 27.6708 63.926 27.5054 64.0267 27.3071L63.1351 26.8542L63.1351 26.8542L63.5434 27.7671ZM63.135 26.8544L63.1351 26.8542L64.0267 27.3071C64.0437 27.2737 64.0589 27.239 64.0722 27.2033L63.135 26.8544ZM64.0721 27.2036C64.1091 27.1043 64.1306 26.9984 64.1345 26.8898L63.1351 26.8543L63.1352 26.8541L64.0721 27.2036ZM63.1352 26.854L63.1352 26.8539L64.1345 26.8903C64.1356 26.8599 64.1353 26.8296 64.1337 26.7995L63.1352 26.854ZM63.1352 26.8542L63.1352 26.854L64.1337 26.7995C64.1276 26.6875 64.1027 26.5787 64.0613 26.4771L63.1352 26.8542ZM63.135 26.854L63.1352 26.8542L64.0613 26.4771C64.0401 26.425 64.0145 26.3747 63.9848 26.3269L63.135 26.854ZM63.1351 26.8541L63.135 26.854L63.9848 26.3269C63.8824 26.1617 63.731 26.0252 63.5434 25.9413L63.1351 26.8541ZM5.36135 1.01173L63.1351 26.8541L63.5434 25.9413L5.76966 0.0988864L5.36135 1.01173ZM5.67415 2.05699L12.9881 26.4974L13.9461 26.2107L6.63217 1.7703L5.67415 2.05699ZM60.9969 25.8977L6.35732 1.45723L5.949 2.37007L60.5886 26.8105L60.9969 25.8977ZM13.4671 26.8541H60.7928V25.8541H13.4671V26.8541ZM6.63217 51.938L13.9461 27.4976L12.9881 27.2109L5.67415 51.6513L6.63217 51.938ZM60.5886 26.8978L5.949 51.3383L6.35732 52.2511L60.9969 27.8107L60.5886 26.8978ZM13.4671 27.8542H60.7928V26.8542H13.4671V27.8542Z" fill="#08297C"/>
</g>
<defs>
<filter id="filter0_d_1234_13298" x="0.361328" y="0.0117188" width="67.7734" height="61.6855" filterUnits="userSpaceOnUse" color-interpolation-filters="sRGB">
<feFlood flood-opacity="0" result="BackgroundImageFix"/>
<feColorMatrix in="SourceAlpha" type="matrix" values="0 0 0 0 0 0 0 0 0 0 0 0 0 0 0 0 0 0 127 0" result="hardAlpha"/>
<feOffset dy="4"/>
<feGaussianBlur stdDeviation="2"/>
<feComposite in2="hardAlpha" operator="out"/>
<feColorMatrix type="matrix" values="0 0 0 0 0 0 0 0 0 0 0 0 0 0 0 0 0 0 0.25 0"/>
<feBlend mode="normal" in2="BackgroundImageFix" result="effect1_dropShadow_1234_13298"/>
<feBlend mode="normal" in="SourceGraphic" in2="effect1_dropShadow_1234_13298" result="shape"/>
</filter>
</defs>
</svg>
